<?xml version="1.0" encoding="utf-8"?>
<!-- Generator: Adobe Illustrator 24.0.0, SVG Export Plug-In . SVG Version: 6.00 Build 0)  -->
<svg version="1.1" id="Слой_1" xmlns="http://www.w3.org/2000/svg" xmlns:xlink="http://www.w3.org/1999/xlink" x="0px" y="0px"
	 viewBox="0 0 247 247" style="enable-background:new 0 0 247 247;" xml:space="preserve">
<style type="text/css">
	.st0{fill:#FFFFFF;}
	.st1{fill:none;stroke:#FFFFFF;stroke-width:2;stroke-miterlimit:10;}
</style>
<title>Vektor-Smartobjekt</title>
<g id="Ebene_1">
	<path class="st0" d="M110.2,9.8c6.9-7.4,18.4-7.8,25.8-0.9c0.3,0.3,0.6,0.6,0.9,0.9c7.3,7.7,21.7,11.6,31.9,8.6
		c9.6-2.9,19.8,2.5,22.8,12.1c0.1,0.4,0.2,0.8,0.3,1.3c2.5,10.4,13,20.9,23.4,23.4c9.8,2.3,15.9,12.1,13.7,21.9
		c-0.1,0.4-0.2,0.8-0.3,1.2c-3,10.2,0.8,24.6,8.6,31.9c7.4,6.9,7.8,18.4,0.9,25.8c-0.3,0.3-0.6,0.6-0.9,0.9
		c-7.7,7.3-11.6,21.7-8.6,31.9c2.9,9.6-2.5,19.8-12.1,22.8c-0.4,0.1-0.8,0.2-1.2,0.3c-10.4,2.5-20.9,13-23.4,23.4
		c-2.3,9.8-12.1,15.9-21.9,13.7c-0.4-0.1-0.8-0.2-1.2-0.3c-10.2-3-24.6,0.8-31.9,8.6c-6.9,7.4-18.4,7.8-25.8,0.9
		c-0.3-0.3-0.6-0.6-0.9-0.9c-7.3-7.7-21.7-11.6-31.9-8.6c-9.6,2.9-19.8-2.5-22.8-12.1c-0.1-0.4-0.2-0.8-0.3-1.2
		c-2.5-10.4-13-20.9-23.4-23.4c-9.8-2.3-15.9-12-13.7-21.8c0.1-0.4,0.2-0.8,0.3-1.2c3-10.2-0.8-24.6-8.6-31.9
		C2.5,130,2.1,118.4,9,111.1c0.3-0.3,0.6-0.6,0.9-0.9c7.7-7.4,11.6-21.7,8.6-32c-2.9-9.6,2.5-19.8,12.1-22.8
		c0.4-0.1,0.8-0.2,1.3-0.3c10.4-2.5,20.9-13,23.4-23.4c2.3-9.8,12.1-15.9,21.9-13.7c0.4,0.1,0.8,0.2,1.2,0.3
		C88.4,21.4,102.8,17.6,110.2,9.8z"/>
</g>
<g id="Ebene_1_Kopie">
	<path class="st1" d="M109.8,7c7-7.6,18.9-8,26.4-0.9c0.3,0.3,0.6,0.6,0.9,0.9c7.5,7.9,22.3,11.9,32.7,8.8c9.9-3,20.3,2.6,23.4,12.4
		c0.1,0.4,0.2,0.8,0.3,1.2c2.6,10.6,13.3,21.4,24,24c10.1,2.3,16.3,12.4,14,22.4c-0.1,0.4-0.2,0.9-0.3,1.3
		c-3.1,10.5,0.8,25.2,8.8,32.7c7.6,7,8,18.9,0.9,26.4c-0.3,0.3-0.6,0.6-0.9,0.9c-7.9,7.5-11.9,22.3-8.8,32.7
		c3,9.9-2.5,20.3-12.4,23.4c-0.4,0.1-0.8,0.2-1.3,0.3c-10.6,2.6-21.4,13.3-24,24c-2.3,10.1-12.4,16.3-22.4,14
		c-0.4-0.1-0.8-0.2-1.3-0.3c-10.5-3.1-25.2,0.8-32.7,8.8c-7,7.6-18.9,8-26.4,0.9c-0.3-0.3-0.6-0.6-0.9-0.9
		c-7.5-7.9-22.3-11.9-32.7-8.8c-9.9,3-20.3-2.5-23.4-12.4c-0.1-0.4-0.2-0.8-0.3-1.3c-2.5-10.6-13.3-21.4-24-24
		c-10.1-2.3-16.3-12.4-14-22.4c0.1-0.4,0.2-0.8,0.3-1.2c3.1-10.5-0.8-25.2-8.8-32.7c-7.6-7-8-18.9-0.9-26.4c0.3-0.3,0.6-0.6,0.9-0.9
		c7.9-7.5,11.9-22.3,8.8-32.7c-3-9.9,2.5-20.3,12.4-23.4c0.4-0.1,0.8-0.2,1.3-0.3c10.6-2.5,21.4-13.3,24-24
		c2.3-10.1,12.4-16.3,22.4-14c0.4,0.1,0.8,0.2,1.3,0.3C87.5,18.8,102.3,14.9,109.8,7z"/>
</g>
</svg>
