<?xml version="1.0" encoding="utf-8"?>
<!-- Generator: Adobe Illustrator 24.0.0, SVG Export Plug-In . SVG Version: 6.00 Build 0)  -->
<svg version="1.1" id="objects" xmlns="http://www.w3.org/2000/svg" xmlns:xlink="http://www.w3.org/1999/xlink" x="0px" y="0px"
	 viewBox="0 0 273.6 273.6" style="enable-background:new 0 0 273.6 273.6;" xml:space="preserve">
<style type="text/css">
	.st0{fill:#FFFFFF;}
	.st1{fill:#CAB8B0;}
</style>
<title>Vektor-Smartobjekt</title>
<circle class="st0" cx="136.8" cy="136.8" r="136.8"/>
<path class="st1" d="M93.8,116.5c-0.3-0.2-0.7-0.1-0.9,0.3s-0.1,0.7,0.3,0.9c18.6,13.2,38.6,30.2,42,54
	c-15.8-12.2-33.6-21.5-49.3-33.9c-13.1-10.4-29-22.1-34.7-38.5c-0.3-1-2.1-0.9-2,0.3c2,15.1,18.2,28.3,29.3,37.1
	c18.3,14.6,38,26.3,57.6,38.9c0.6,0.3,1.4,0.1,1.7-0.5c0.1-0.2,0.2-0.4,0.2-0.6C135.7,149.7,115,127.8,93.8,116.5z"/>
<path class="st1" d="M131.4,83.9c-0.4-0.2-0.9-0.1-1.1,0.3c-0.2,0.4-0.1,0.9,0.3,1.1l0,0c11.4,8.5,22,16.3,29.6,28.7
	c6.3,10.3,9,22.1,9.7,34c-2.1-6.2-5-12-8.5-17.5c-4.9-7.1-10.9-13.3-17.9-18.4c-9.6-7.2-18.6-15-27.8-22.6
	c-8.8-7.3-19.2-13.2-27.4-21.2c-0.7-0.7-1.5,0.3-1,1c6.1,7.9,14.8,13.4,22.4,19.7c8.4,6.9,16.4,14.4,25.1,21
	c7.5,5.7,14.8,11.2,20.9,18.5c6.1,7.7,11,16.3,14.4,25.5c0.2,0.5,0.7,0.8,1.2,0.6c0.4-0.1,0.6-0.5,0.6-0.8
	C171.5,124.6,157.6,97.9,131.4,83.9z"/>
<path class="st1" d="M170.6,61.3c-1.2-0.5-2.2,1.1-1,1.8c17.5,9.4,40.3,23,38.4,44.9c-5.9-12.8-21.3-22.8-32.7-28.7
	c-0.2-0.1-0.5,0-0.6,0.2c-0.1,0.2,0,0.5,0.2,0.6c6.3,4.6,12.3,9.5,18,14.8c5.9,5.4,12.5,12.1,14,20.2c0.3,1.7,2.7,1.5,3.2,0
	C217.6,88.1,192.1,70.5,170.6,61.3z"/>
<path class="st1" d="M145.1,38.8h-0.8c0,0-0.1,0.1,0,0.1c0,0,0,0,0,0h0.8C145.1,38.9,145.2,38.8,145.1,38.8
	C145.1,38.8,145.1,38.8,145.1,38.8z"/>
<path class="st1" d="M221.8,69.4c-7.1-8.5-16.4-14.9-26.9-18.4c-7.6-2.7-16.4-3.8-24.3-5.2c-7.6-1.3-15.3-1.7-23-1.2
	c-0.5,0.1-0.9,0.5-0.8,1c0,0.4,0.4,0.8,0.8,0.8c9.6,0.8,19.1,2.2,28.6,4.2c9.3,1.8,18.4,3.5,26.9,7.9c12.6,6.5,23,20.2,29.4,32.6
	c2.9,5.7,5.1,11.7,6.3,18c-4.3-6.5-10.5-12.2-15.5-16.8c-0.8-0.8-2.4,0.3-1.6,1.3c3.6,4.7,7.2,9.5,10.6,14.4
	c4.4,6.3,5.1,12.8,7.5,19.8c0.1,0.2,0.2,0.4,0.4,0.6c-0.1,2.7-0.4,5.4-0.8,8.1c-2.8-9.2-9-17.9-13.4-25.6c-0.7-1.2-2.5-0.1-1.9,1.1
	c3.2,6.3,6.5,12.4,8.9,19.1c2.3,6.3,2.4,12.6,3.3,19.1c-0.8,2.8-1.8,5.5-2.9,8.1c-0.7-11.3-5.8-23-10.2-32.3
	c-0.4-0.9-1.8-0.3-1.5,0.6c2.3,6.7,4.8,13.2,6.4,20.1c2,8.9,0.2,17.8-2,26.4c-1.4,2.3-2.8,4.5-4.3,6.7
	c-25.8,36.4-76.3,55.5-120.1,46.4c-6.8-10.6-8.6-22.4-9.1-34.8c0-0.4-0.4-0.7-0.8-0.6c-0.3,0-0.6,0.3-0.6,0.6
	c-0.4,12,0,23.1,5.3,33.6c-1.9-0.5-3.8-1-5.6-1.6v-0.1c-12.8-14.6-20.7-30.6-22.4-50.2c-0.1-0.8-1.3-0.9-1.3,0
	c0.3,17.7,5.1,33.8,15.9,47.3c-5.8-2.5-11.4-5.6-16.6-9.2c0.3-0.8,0.1-1.6-0.4-2.2c-11.2-13.6-11.3-33.3-10.8-50
	c0-0.9-1.4-0.9-1.4,0c-1.2,15-2.6,31.7,4.1,45.4c-5.6-5.2-10.4-11.3-14.1-18c0.2-0.4,0.2-0.9,0.2-1.3c-1.7-7.6-2.8-14.1-1.7-21.9
	c0.8-5.6,2.3-11.1,1.8-16.7c0-0.2-0.1-0.4-0.3-0.4c-0.2,0-0.3,0.1-0.3,0.3c-2.8,7.4-5.8,16.6-6.1,25.4c-6.9-20.6-6.1-44.1,0.9-64.8
	c6.7-19.6,19.5-35.4,36.5-47c17.4-11.9,37.2-16.9,58-18c0.5,0,0.6-0.8,0.1-0.8c-27.7-4.8-58,11.3-76.9,30.5
	c-19.3,19.4-28.1,48.4-27,75.4s13.6,52.6,35.6,68.4c22.3,16.1,51.4,21.1,78.2,17.1c48.6-7.2,95.6-42.9,101.7-94
	C247.4,112.4,238.3,88.9,221.8,69.4z"/>
<path class="st1" d="M109.9,143c-25-7.1-39.6-28.5-59.1-43.9c-0.6-0.5-1.4,0.3-0.8,0.8c9.9,8.4,18.7,18,28.5,26.6
	c8.8,7.8,19.3,15.7,31.1,17.5c0.3,0.1,0.6-0.1,0.6-0.4C110.3,143.3,110.2,143,109.9,143z"/>
<path class="st1" d="M146.2,107.7c-10.4-11-20.3-23.4-32.9-31.8c-0.3-0.2-0.6,0.3-0.4,0.5c11.9,9.7,20.9,22.3,32.5,32.2
	c0.2,0.2,0.6,0.2,0.8,0C146.4,108.3,146.4,107.9,146.2,107.7z"/>
<path class="st1" d="M75.9,56.1c0.1-0.1-0.2-0.2-0.2-0.1c-4.8,10.3-10.1,20.8-5.5,32.2c0.1,0.3,0.7,0.2,0.6-0.2
	C66.9,76.6,71.5,66.6,75.9,56.1z"/>
<path class="st1" d="M88.2,48.6c-6.2,6.4-9,14.9-10.1,23.6c0,0.4,0.6,0.5,0.7,0.1c1.8-8.6,4.6-16.2,9.9-23.3
	C88.9,48.7,88.5,48.3,88.2,48.6z"/>
<path class="st1" d="M111.7,41.9c-7.2,2.8-11.5,10.9-12.9,18.1c-0.1,0.4,0.5,0.6,0.6,0.2c1.7-7.2,5.6-14.5,12.5-17.9
	C112.1,42.2,111.9,41.8,111.7,41.9z"/>
<path class="st1" d="M127.5,41.2c-5.1,4.2-8.3,10.3-8.8,16.9c0,0.4,0.7,0.5,0.7,0.1c0.9-6.3,3.9-12.1,8.5-16.5
	C128.3,41.4,127.8,41,127.5,41.2z"/>
<path class="st1" d="M99.4,45.8c-4.3,4.2-8.1,8.8-9.4,14.9c-0.1,0.2,0.1,0.4,0.3,0.4c0.2,0.1,0.4-0.1,0.4-0.3
	c1.7-5.7,5.3-10.2,9.3-14.4c0.2-0.2,0.2-0.5,0-0.6S99.6,45.6,99.4,45.8z"/>
<path class="st1" d="M66.7,95.4c-2.3-5.2-3.4-11-3.1-16.7c0.3-4.7,2-9.2,2.2-13.9c0,0-0.1-0.1-0.1-0.1c0,0,0,0-0.1,0.1
	c-3.7,10-4.6,21.3,0.5,30.8C66.3,95.9,66.9,95.7,66.7,95.4z"/>
<path class="st1" d="M218.7,142.6c-0.2-0.3-0.7-0.1-0.6,0.2c3.5,9.1,1.9,19.6-0.4,28.8c-1.3,5.2-3.1,10.3-5.4,15.2
	c-1.8,3.9-4.5,7.2-6.5,10.9c-0.2,0.3-0.1,0.7,0.3,0.9c0.3,0.2,0.6,0.1,0.8-0.1c3.5-2.9,5.6-8.1,7.4-12.1c2.3-5.1,4-10.4,5.3-15.8
	C221.8,161.8,223,151.1,218.7,142.6z"/>
<path class="st1" d="M36.5,134c-2.8,7.4-6,15.5-6,23.5c0,0.6,0.9,0.8,1.1,0.1c1.6-8,3.7-15.5,6-23.3C37.9,133.5,36.8,133.3,36.5,134
	z"/>
<path class="st1" d="M93.7,226.6c-2.2-5.4-4.7-10.6-6.4-16.2c-2-6.6-2.7-13.4-3.1-20.3c0-0.2-0.2-0.3-0.4-0.3
	c-0.1,0-0.3,0.1-0.3,0.3c-0.4,12.9,2.8,25.7,9.1,37C92.9,227.7,94,227.3,93.7,226.6z"/>
<path class="st1" d="M78.7,221.9c-12.3-12.5-18.8-30.2-16-47.7c0-0.2-0.3-0.4-0.4-0.1c-3.8,16.7,2.7,37.1,16,48.3
	C78.5,222.6,79,222.2,78.7,221.9z"/>
<path class="st1" d="M118,231.2c-7.9-6.5-11.6-15.2-13.4-25.1c0-0.2-0.4-0.1-0.3,0.1c1.2,10,5.1,19.5,13.3,25.6
	C117.9,232,118.3,231.5,118,231.2z"/>
<path class="st1" d="M130.6,230.6c-10-4.7-14.7-13.7-19.3-23.2c-0.1-0.2-0.4-0.1-0.4,0.1c3.5,9.3,9.1,20.6,19.4,23.5
	C130.6,231.1,130.8,230.7,130.6,230.6z"/>
</svg>
