<svg id="objects" xmlns="http://www.w3.org/2000/svg" viewBox="0 0 273.6 273.6"><defs><style>.cls-1{fill:#fff;}</style></defs><title>Vektor-Smartobjekt</title><circle class="cls-1" cx="136.8" cy="136.8" r="136.8"/><path d="M157.73,135.36a.68.68,0,0,0-.68,1.18c18.58,13.24,38.6,30.21,42,54-15.82-12.19-33.61-21.51-49.29-33.91-13.15-10.4-29-22.06-34.73-38.46-.35-1-2.11-.9-2,.27,2,15.09,18.21,28.26,29.3,37.09,18.27,14.56,38,26.29,57.63,38.9a1.26,1.26,0,0,0,1.88-1.08C199.59,168.58,178.92,146.65,157.73,135.36Z" transform="translate(-63.9 -18.87)"/><path d="M195.25,102.8a.8.8,0,0,0-.81,1.38c11.42,8.52,22,16.32,29.57,28.7,6.29,10.3,9,22.11,9.69,34a81.36,81.36,0,0,0-8.53-17.51A76.76,76.76,0,0,0,207.27,131c-9.6-7.16-18.57-15-27.79-22.6-8.84-7.31-19.21-13.23-27.42-21.19-.67-.65-1.53.29-1,1,6.1,7.86,14.79,13.44,22.43,19.68,8.45,6.89,16.41,14.38,25.09,21,7.52,5.74,14.81,11.16,20.88,18.51a93,93,0,0,1,14.43,25.47.94.94,0,0,0,1.83-.25C235.38,143.47,221.54,116.79,195.25,102.8Z" transform="translate(-63.9 -18.87)"/><path d="M234.48,80.14c-1.17-.51-2.2,1.12-1,1.75,17.52,9.4,40.28,23,38.37,44.89C266,114,250.51,104,239.2,98.09a.47.47,0,0,0-.47.81,211.71,211.71,0,0,1,18,14.75c5.85,5.39,12.52,12.11,14,20.24.29,1.66,2.74,1.46,3.16,0C281.52,107,256,89.4,234.48,80.14Z" transform="translate(-63.9 -18.87)"/><path d="M209,57.64h-.84a.07.07,0,0,0,0,.13H209A.07.07,0,0,0,209,57.64Z" transform="translate(-63.9 -18.87)"/><path d="M285.65,88.27a60.67,60.67,0,0,0-26.86-18.44c-7.64-2.69-16.35-3.77-24.33-5.17a102.07,102.07,0,0,0-23-1.21.92.92,0,0,0,0,1.83,235.41,235.41,0,0,1,28.56,4.18c9.26,1.82,18.4,3.49,26.85,7.86,12.65,6.53,23,20.22,29.39,32.56a68.17,68.17,0,0,1,6.33,18c-4.29-6.5-10.47-12.22-15.47-16.78-.84-.77-2.41.29-1.65,1.27,3.64,4.73,7.21,9.47,10.61,14.37,4.38,6.31,5.06,12.81,7.54,19.75a2.07,2.07,0,0,0,.38.62c-.14,2.69-.39,5.39-.78,8.08-2.78-9.17-9-17.91-13.42-25.58-.7-1.21-2.47-.14-1.85,1.08,3.16,6.29,6.48,12.43,8.91,19.06,2.32,6.3,2.43,12.56,3.32,19.09-.83,2.75-1.79,5.48-2.85,8.15-.73-11.27-5.81-23-10.23-32.28-.41-.86-1.84-.25-1.53.65,2.3,6.67,4.81,13.18,6.4,20.07,2.05,8.88.24,17.79-2,26.36-1.37,2.28-2.81,4.51-4.33,6.66-25.77,36.37-76.26,55.52-120.11,46.45-6.82-10.59-8.6-22.35-9.15-34.84a.73.73,0,0,0-1.45,0c-.44,12,0,23.13,5.28,33.6-1.88-.5-3.76-1-5.62-1.64l0-.06c-12.84-14.65-20.73-30.62-22.37-50.21-.07-.84-1.34-.87-1.33,0,.27,17.66,5.12,33.78,15.89,47.32a91.71,91.71,0,0,1-16.58-9.2,2.24,2.24,0,0,0-.4-2.24c-11.19-13.64-11.26-33.29-10.84-50,0-.94-1.37-.92-1.44,0-1.17,15-2.61,31.67,4.1,45.38a74.68,74.68,0,0,1-14.12-18,2,2,0,0,0,.15-1.31c-1.71-7.62-2.77-14.05-1.65-21.88.8-5.55,2.25-11.08,1.77-16.72a.35.35,0,0,0-.69-.09c-2.81,7.35-5.78,16.58-6.06,25.37-6.86-20.63-6.11-44.08.9-64.75,6.65-19.6,19.49-35.41,36.52-47,17.45-11.87,37.21-16.86,58-18,.46,0,.62-.75.12-.84-27.67-4.8-58,11.35-76.91,30.46-19.28,19.45-28.08,48.39-27,75.35s13.56,52.59,35.56,68.42c22.31,16.06,51.36,21.06,78.21,17.09,48.62-7.16,95.62-42.9,101.72-94C311.27,131.23,302.23,107.74,285.65,88.27Z" transform="translate(-63.9 -18.87)"/><path d="M173.8,161.82c-25-7.1-39.57-28.48-59.06-43.9-.58-.46-1.41.33-.83.83,9.92,8.39,18.72,18,28.46,26.58,8.81,7.78,19.25,15.69,31.15,17.51A.53.53,0,0,0,173.8,161.82Z" transform="translate(-63.9 -18.87)"/><path d="M210.07,126.59c-10.36-11-20.29-23.39-32.92-31.85-.29-.2-.64.26-.37.47,11.88,9.7,20.86,22.29,32.47,32.2A.58.58,0,0,0,210.07,126.59Z" transform="translate(-63.9 -18.87)"/><path d="M139.79,75c.06-.13-.18-.23-.24-.1-4.78,10.27-10.11,20.84-5.5,32.15.14.33.68.2.56-.16C130.83,95.45,135.41,85.52,139.79,75Z" transform="translate(-63.9 -18.87)"/><path d="M152.1,67.43c-6.2,6.4-9,14.89-10.12,23.57,0,.39.61.48.69.09,1.76-8.63,4.56-16.21,9.94-23.26C152.84,67.53,152.35,67.17,152.1,67.43Z" transform="translate(-63.9 -18.87)"/><path d="M175.6,60.79c-7.2,2.84-11.5,10.87-12.92,18.12-.08.41.53.59.63.18,1.74-7.17,5.62-14.51,12.46-17.9C176,61.08,175.84,60.7,175.6,60.79Z" transform="translate(-63.9 -18.87)"/><path d="M191.44,60.11A24.53,24.53,0,0,0,182.62,77c0,.42.68.52.74.1a28.57,28.57,0,0,1,8.53-16.54C192.19,60.26,191.75,59.86,191.44,60.11Z" transform="translate(-63.9 -18.87)"/><path d="M163.34,64.68c-4.31,4.21-8.12,8.85-9.36,14.89a.36.36,0,0,0,.7.19c1.67-5.71,5.25-10.21,9.3-14.44A.45.45,0,0,0,163.34,64.68Z" transform="translate(-63.9 -18.87)"/><path d="M130.64,114.25a36.65,36.65,0,0,1-3.1-16.7c.29-4.7,2-9.2,2.21-13.88a.09.09,0,0,0-.17,0c-3.74,10-4.61,21.28.47,30.85C130.22,114.81,130.78,114.59,130.64,114.25Z" transform="translate(-63.9 -18.87)"/><path d="M282.6,161.51c-.16-.32-.7-.09-.57.24,3.49,9.12,1.9,19.59-.38,28.8a85.85,85.85,0,0,1-5.43,15.16c-1.81,3.9-4.52,7.19-6.48,10.95a.68.68,0,0,0,1.07.82c3.48-2.89,5.59-8.07,7.42-12.09a86.93,86.93,0,0,0,5.27-15.77C285.65,180.68,286.89,170,282.6,161.51Z" transform="translate(-63.9 -18.87)"/><path d="M100.42,152.84c-2.76,7.4-6,15.48-6,23.49,0,.6.93.75,1.06.15,1.62-8,3.73-15.53,6-23.32C101.79,152.41,100.69,152.14,100.42,152.84Z" transform="translate(-63.9 -18.87)"/><path d="M157.58,245.5c-2.23-5.39-4.71-10.6-6.43-16.21-2-6.61-2.69-13.42-3.14-20.29a.35.35,0,0,0-.69,0,70.58,70.58,0,0,0,9.15,37C156.8,246.56,157.85,246.15,157.58,245.5Z" transform="translate(-63.9 -18.87)"/><path d="M142.56,240.77c-12.27-12.48-18.79-30.21-16-47.72,0-.24-.32-.35-.38-.1-3.75,16.74,2.75,37.13,16,48.28C142.41,241.49,142.85,241.07,142.56,240.77Z" transform="translate(-63.9 -18.87)"/><path d="M181.9,250.09c-7.86-6.54-11.64-15.23-13.41-25.14,0-.19-.36-.14-.33.05,1.16,10,5.14,19.48,13.33,25.62C181.8,250.85,182.19,250.34,181.9,250.09Z" transform="translate(-63.9 -18.87)"/><path d="M194.46,249.44c-10.05-4.7-14.67-13.67-19.3-23.2-.1-.19-.42-.06-.35.14,3.54,9.3,9.05,20.64,19.45,23.54C194.54,250,194.74,249.57,194.46,249.44Z" transform="translate(-63.9 -18.87)"/></svg>